PathFileType	4	(X/Y/Z)	2_2_95_p1_0-326_filt_butterworth.trc
DataRate	CameraRate	NumFrames	NumMarkers	Units	OrigDataRate	OrigDataStartFrame	OrigNumFrames
59.0	59.0	4	27	m	59.0	0	326
Frame#	Time	RHip			RKnee			RAnkle			RBigToe			RSmallToe			RHeel			LHip			LKnee			LAnkle			LBigToe			LSmallToe			LHeel			Neck			Head			Nose			RShoulder			RElbow			RWrist			RThumb			RIndex			RPinky			LShoulder			LElbow			LWrist			LThumb			LIndex			LPinky			
		X1	Y1	Z1	X2	Y2	Z2	X3	Y3	Z3	X4	Y4	Z4	X5	Y5	Z5	X6	Y6	Z6	X7	Y7	Z7	X8	Y8	Z8	X9	Y9	Z9	X10	Y10	Z10	X11	Y11	Z11	X12	Y12	Z12	X13	Y13	Z13	X14	Y14	Z14	X15	Y15	Z15	X16	Y16	Z16	X17	Y17	Z17	X18	Y18	Z18	X19	Y19	Z19	X20	Y20	Z20	X21	Y21	Z21	X22	Y22	Z22	X23	Y23	Z23	X24	Y24	Z24	X25	Y25	Z25	X26	Y26	Z26	X27	Y27	Z27	
0	0.0	0.3091242581230533	0.5325361811987237	0.9636552824041732	0.30902537900987653	0.7055573719240117	1.4245134992804762	0.2841212173990039	0.8953385808458167	1.8247336800007925	0.3017922479242936	0.6758405020074099	1.8802249358930867	0.35146058456439844	0.7404416416693134	1.8882203184929818	0.2708585351038936	0.9132825422732328	1.8575170966567467	0.08962409951618214	0.5125673443045661	0.9634514112303822	0.07838230285741492	0.6963489703613144	1.4110342508625853	0.06815894237704967	0.8666080032905413	1.8187424610271035	0.10788207819761139	0.7133514232037534	1.901572156140091	0.0449154784233252	0.7024604084471561	1.8724987581771333	0.07668462687134375	0.9915196177924013	1.8939775727249946	0.22030688005250426	0.3074175581255081	0.2747911375391294	0.2336608766675722	0.17981352302620734	0.02716535734620808	0.2331204162750335	0.18769112954902345	0.15682631804724997	0.397407333159787	0.37517573153662725	0.3553978635921088	0.4547051373601686	0.4080126194153363	0.664591219601075	0.3559169379292779	0.3545621142290337	0.8799196742990376	0.23140810475062018	0.308696611376809	0.9312163479880167	0.21838229994307348	0.32332954125546565	0.9771232705357075	0.2254386595185505	0.336625315945048	0.9737140324210842	0.05068061395137942	0.3769875657896286	0.3534340258831331	-0.027483011002471587	0.42399588066210797	0.6595526553181927	0.09025521050169619	0.34649167570807227	0.8754240591048092	0.19314564869110695	0.33802768526476323	0.9154604137103752	0.21301240648968367	0.3117359396072727	0.9551718421683523	0.1879578711014754	0.3933861797359536	0.9776810144973666
1	0.0169491525423728	0.31145742549772176	0.5336527233159524	0.9641291857455879	0.3062278177204918	0.7049396706363942	1.4221167773670007	0.28444656829697124	0.8947776430418375	1.8270164977751893	0.3020725228957308	0.6751839243489879	1.8822083508501843	0.35490112579012106	0.7522243938019785	1.8879409789124044	0.2715922939747152	0.9157711037241488	1.8611182871020016	0.08965302110955059	0.5114554445295787	0.9610830629569723	0.07828088597970062	0.6977203449527398	1.4123530503234383	0.06819931809761204	0.8664748118309875	1.8187484544562733	0.10792899713728578	0.7107209758589899	1.8959587115407284	0.0448415140450365	0.7025480624017454	1.8724446465917817	0.08115816620077401	0.9801989612028787	1.8905448606774868	0.22266575479318837	0.3082624395303079	0.274622539536594	0.23373898579754127	0.17985089416030361	0.02716170498121545	0.23188162422169833	0.1814923543298267	0.15850967375838387	0.39525294883307927	0.3813174563497938	0.3544621218198375	0.4528626487853174	0.41925522628051476	0.6660367416151102	0.3550359835827074	0.3553292241279042	0.8830458341252188	0.22899327211653836	0.3073555275949665	0.9316454758685997	0.21941274861651655	0.3301037587623437	0.9773336870703473	0.22711011120638921	0.3429550075157697	0.9758882315190149	0.05079519212072754	0.37687524818805757	0.35344845835721816	-0.027327909669236126	0.4236374924755361	0.6584507663938259	0.0904112617637757	0.3462035452002707	0.8753119678493995	0.1933889539751307	0.337684747581422	0.9173256718984044	0.21304849008459043	0.3110256960647984	0.9552624739910366	0.18769229161391685	0.39194246279695333	0.9754952641084665
2	0.0338983050847457	0.31280196465348653	0.5337077319652292	0.9630744116065735	0.3044997779532137	0.7044565319735485	1.4203484664131008	0.28463887345976885	0.8944365645037675	1.828363066528682	0.30224664042843713	0.674793220830646	1.8834351876066244	0.35739960468406073	0.7608847774381593	1.888401322015154	0.2720059775996616	0.9171264386126453	1.8631195005606425	0.08968005199654236	0.5107128689784035	0.9597500719208834	0.07828919588127137	0.6977961619401896	1.4122601484396815	0.06821270767288998	0.8664285360578554	1.818724879115377	0.10785622376958146	0.7094457643722913	1.8929937759146753	0.044762748067301905	0.702681831617431	1.87244104338533	0.08372818730765791	0.9735140012659974	1.8879832626162825	0.22407490976712408	0.3087601729026569	0.2745286336583577	0.23378326406531916	0.17988009376133476	0.02716644090843994	0.23114590251312794	0.17779191101093791	0.15948739115237395	0.3943218083007099	0.3839421915479377	0.354080077977861	0.45135395690619257	0.42441614575097786	0.6667522179929357	0.35362576190381484	0.35474982787182824	0.8851814035800236	0.22759897180522332	0.30688663881334133	0.9325056703003811	0.22000096603541902	0.33415208712459404	0.9774418376641048	0.22811750468556846	0.3467085132439187	0.977179599153445	0.050872177133427794	0.37680601277357995	0.35345478616075565	-0.02722332240980444	0.4233863204052235	0.6576328256604407	0.09050456187450381	0.3461023493409638	0.8752713051047858	0.19352749973668104	0.3374980396152698	0.9184136231668485	0.21309538698423525	0.3107618327681245	0.9553523180406125	0.18753944208918744	0.39111296737974116	0.9742116497400031
3	0.0508474576271186	0.31308478218050256	0.5328432202464743	0.9609722361290988	0.3039487100494029	0.7040885556288614	1.4195838259762399	0.2846901147892299	0.8943363385685731	1.8287212642363904	0.30234782787371706	0.6746205860721968	1.883720442935984	0.3586503008460828	0.7649909780411736	1.8899187284454584	0.27200551380589827	0.9170294707021627	1.8630593578946244	0.08968963191878164	0.5102872400867197	0.9595595605897894	0.07890408872280384	0.6956969706259728	1.4110673999322865	0.06820128934857143	0.8664512623313918	1.8186614082977228	0.10777210036795688	0.7094269922028996	1.8923488599999092	0.04468408027519638	0.7028522589557641	1.8724903323393387	0.0842620890778451	0.971791165179496	1.885953656745874	0.2244662282983309	0.3088857528970754	0.27451458186181416	0.23379454709568023	0.1798750897090655	0.02717850877465202	0.23095260710617668	0.17676594641625107	0.1597182719556392	0.39421927811611135	0.38418357709996026	0.3540562112865779	0.45049033840450864	0.42415193336903956	0.6666304182613432	0.35233817323527816	0.35196663528401795	0.8862827389317526	0.22727798894397583	0.30725762103830895	0.9336706615641568	0.22013110218001475	0.3352910936173584	0.9774668278289058	0.22841094787018032	0.34771087597099815	0.9775245394406684	0.05090037115226992	0.3767819011992688	0.3534526825025414	-0.027160528777771347	0.4232511604207847	0.6569945522506346	0.09052688508782968	0.34617377093575435	0.8752965967976243	0.19354569662750623	0.3374967980620589	0.9187337789811543	0.21313396662760026	0.31208697040594613	0.9554628115787669	0.1875021900987286	0.3909422012842798	0.9738886229123581
